2.6Hz3min_grf.mot
version=1
nRows=22
nColumns 19
inDegrees=yes
endheader
time	1_ground_force_vx	1_ground_force_vy	1_ground_force_vz	1_ground_force_px	1_ground_force_py	1_ground_force_pz	1_ground_torque_x	1_ground_torque_y	1_ground_torque_z	2_ground_force_vx	2_ground_force_vy	2_ground_force_vz	2_ground_force_px	2_ground_force_py	2_ground_force_pz	2_ground_torque_x	2_ground_torque_y	2_ground_torque_z
            2.502500	           11.584137	          913.879320	          -63.887254	           -0.240041	            0.006457	           -0.460102	            0.050747	            4.003470	           -0.279874	           49.993414	          931.111458	           92.791973	           -0.264523	            0.005686	           -0.741740	           -0.133337	           -2.483367	           -0.247485
            2.503000	           11.493003	          914.599185	          -63.608792	           -0.239872	            0.006457	           -0.460071	            0.051064	            4.063582	           -0.282615	           49.425652	          932.584563	           92.234331	           -0.264460	            0.005686	           -0.741698	           -0.128237	           -2.419630	           -0.239306
            2.503500	           11.906060	          915.139048	          -63.378221	           -0.239946	            0.006456	           -0.459977	            0.054000	            4.150584	           -0.287450	           48.956258	          932.768914	           91.718971	           -0.264425	            0.005685	           -0.741458	           -0.131799	           -2.511190	           -0.246925
            2.504000	           12.044338	          914.777425	          -63.104965	           -0.239837	            0.006456	           -0.459961	            0.055263	            4.197245	           -0.289543	           48.109415	          933.688352	           91.206413	           -0.264312	            0.005686	           -0.741428	           -0.130916	           -2.540759	           -0.248191
            2.504500	           12.044874	          914.956738	          -62.874916	           -0.239815	            0.006456	           -0.459910	            0.055451	            4.212203	           -0.289458	           47.639233	          934.057910	           90.410141	           -0.264223	            0.005686	           -0.741353	           -0.138893	           -2.723267	           -0.263593
            2.505000	           11.635559	          913.869695	          -61.640417	           -0.239805	            0.006457	           -0.460138	            0.053894	            4.232880	           -0.285507	           47.124283	          933.874023	           89.799645	           -0.264143	            0.005685	           -0.741116	           -0.140969	           -2.793612	           -0.268629
            2.505500	           11.407500	          913.146819	          -61.230241	           -0.239756	            0.006457	           -0.460281	            0.053742	            4.301907	           -0.288461	           47.353594	          935.166258	           89.147152	           -0.264289	            0.005684	           -0.741092	           -0.148892	           -2.940405	           -0.280302
            2.506000	           11.226013	          914.044603	          -60.400522	           -0.239703	            0.006456	           -0.459918	            0.052331	            4.260864	           -0.281560	           47.164413	          935.537545	           88.116127	           -0.264092	            0.005685	           -0.741031	           -0.151682	           -3.008705	           -0.283383
            2.506500	           10.814924	          913.321102	          -59.852311	           -0.239584	            0.006456	           -0.460036	            0.050761	            4.286805	           -0.280926	           46.741145	          935.906647	           87.460627	           -0.263997	            0.005685	           -0.740847	           -0.152051	           -3.044552	           -0.284514
            2.507000	           11.182224	          911.518061	          -59.769239	           -0.239695	            0.006458	           -0.460351	            0.053863	            4.390610	           -0.287897	           45.993397	          935.352751	           87.130471	           -0.263973	            0.005684	           -0.740692	           -0.151628	           -3.083616	           -0.287247
            2.507500	           11.136627	          910.796793	          -59.726365	           -0.239578	            0.006458	           -0.460450	            0.053716	            4.393090	           -0.288081	           45.100887	          935.904910	           86.288115	           -0.263887	            0.005684	           -0.740589	           -0.153693	           -3.189345	           -0.294050
            2.508000	           10.862971	          909.352649	          -59.273307	           -0.239559	            0.006458	           -0.460487	            0.052866	            4.425446	           -0.288459	           44.210404	          935.904374	           85.537643	           -0.263805	            0.005684	           -0.740508	           -0.152633	           -3.231142	           -0.295313
            2.508500	           10.589899	          908.448213	          -58.542794	           -0.239476	            0.006459	           -0.460637	            0.052021	            4.462607	           -0.287582	           43.742203	          935.721616	           84.692480	           -0.263708	            0.005684	           -0.740471	           -0.154099	           -3.296439	           -0.298362
            2.509000	           10.270787	          908.625179	          -57.807531	           -0.239303	            0.006458	           -0.460377	            0.051065	            4.517548	           -0.287410	           43.422005	          933.512462	           84.168533	           -0.263555	            0.005684	           -0.740112	           -0.156201	           -3.358102	           -0.302777
            2.509500	            9.906715	          906.457988	          -56.898778	           -0.239279	            0.006459	           -0.460599	            0.048905	            4.474732	           -0.280881	           43.044862	          934.066437	           83.372879	           -0.263556	            0.005684	           -0.740149	           -0.157137	           -3.409841	           -0.304355
            2.510000	            9.357952	          904.653517	          -56.492435	           -0.239381	            0.006460	           -0.460763	            0.046225	            4.468691	           -0.279054	           42.719052	          933.332753	           82.197195	           -0.263422	            0.005683	           -0.739953	           -0.156379	           -3.416596	           -0.300894
            2.510500	            9.680220	          904.651220	          -55.942960	           -0.239258	            0.006458	           -0.460486	            0.048777	            4.558384	           -0.281887	           42.111818	          932.779699	           81.773122	           -0.263316	            0.005683	           -0.739858	           -0.156869	           -3.474656	           -0.304609
            2.511000	            9.773274	          903.387442	          -55.490039	           -0.239114	            0.006459	           -0.460563	            0.049906	            4.613067	           -0.283355	           41.317094	          932.226516	           81.161432	           -0.263324	            0.005683	           -0.739666	           -0.159896	           -3.607696	           -0.314093
            2.511500	            9.499148	          901.403392	          -55.268584	           -0.239183	            0.006459	           -0.460652	            0.048543	            4.606365	           -0.282434	           40.241837	          931.489075	           80.314556	           -0.263169	            0.005684	           -0.739749	           -0.156616	           -3.625235	           -0.312574
            2.512000	            9.180203	          899.417686	          -54.634307	           -0.239063	            0.006460	           -0.460909	            0.047674	            4.670824	           -0.283725	           39.635924	          930.567618	           79.889169	           -0.262971	            0.005684	           -0.739597	           -0.157895	           -3.707030	           -0.318248
            2.512500	            8.678602	          897.250468	          -53.725213	           -0.238875	            0.006462	           -0.461219	            0.045209	            4.674009	           -0.279868	           38.890608	          929.278878	           79.040183	           -0.262970	            0.005683	           -0.739386	           -0.157805	           -3.770711	           -0.320719
            2.513000	            8.222874	          896.164521	          -52.719882	           -0.238822	            0.006461	           -0.461087	            0.043120	            4.699453	           -0.276461	           38.801084	          927.993343	           77.956284	           -0.262874	            0.005683	           -0.739276	           -0.158171	           -3.782922	           -0.317785
